<svg xmlns="http://www.w3.org/2000/svg" xmlns:xlink="http://www.w3.org/1999/xlink" viewBox="0 0 407.56 410.41"><defs><style>.cls-1{fill:#fff;}.cls-2{fill:url(#GradientFill_2);}.cls-3{fill:#3d3d3d;}.cls-4{fill:url(#GradientFill_2-2);}.cls-5{fill:url(#GradientFill_2-3);}.cls-6{fill:#343433;}</style><linearGradient id="GradientFill_2" x1="-251.27" y1="225.21" x2="665.73" y2="225.21" gradientUnits="userSpaceOnUse"><stop offset="0" stop-color="#fff584"/><stop offset="0.26" stop-color="#bf933a"/><stop offset="0.46" stop-color="#c79f47"/><stop offset="0.75" stop-color="#fff8ad"/><stop offset="1" stop-color="#c79f47"/></linearGradient><linearGradient id="GradientFill_2-2" x1="-440.25" y1="-120.69" x2="463.2" y2="396.1" xlink:href="#GradientFill_2"/><linearGradient id="GradientFill_2-3" x1="133.91" y1="74.01" x2="273.65" y2="74.01" xlink:href="#GradientFill_2"/></defs><title>Asset 8</title><g id="Layer_2" data-name="Layer 2"><g id="full_badge" data-name="full badge"><path class="cls-1" d="M43.39,317.81v-22.5c-12.18,2-20.15,3.86-25.26,5.15a9.47,9.47,0,0,1-2.36.29c-4.83,0-8.77-3.59-8.88-8.06L0,207v-.16a8.36,8.36,0,0,1,6.92-8.05c5.77-1.21,17.94-3.55,36.47-6.06V132.61l86.86-50.16a76.92,76.92,0,0,1-.47-8.45,74,74,0,1,1,148,0,76.92,76.92,0,0,1-.47,8.45l86.86,50.16v60.14c18.53,2.51,30.7,4.85,36.47,6.06a8.36,8.36,0,0,1,6.92,8.05V207l-6.89,85.67a8,8,0,0,1-2.88,5.9,9.27,9.27,0,0,1-6,2.16h0a9.47,9.47,0,0,1-2.36-.29c-5.11-1.29-13.08-3.17-25.26-5.15v22.5l-160.39,92.6Z"/><polygon class="cls-2" points="360.04 315.43 360.04 134.99 203.78 44.77 47.52 134.99 47.52 315.43 203.78 405.64 360.04 315.43"/><polygon class="cls-3" points="351.8 310.67 351.8 139.75 203.78 54.29 55.76 139.75 55.76 310.67 203.78 396.12 351.8 310.67"/><path class="cls-4" d="M396.54,292.5c0,2.75-3,4.73-6.09,4-16.67-4.22-63.38-14.62-186.67-14.62s-170,10.4-186.67,14.62c-3,.77-6.1-1.21-6.1-4L4.13,206.86a4.28,4.28,0,0,1,3.64-4c15.69-3.28,82-15.57,196-15.57s180.32,12.29,196,15.57a4.28,4.28,0,0,1,3.64,4Z"/><path class="cls-3" d="M67.43,248.85c-.9-5.63-1.94-12.45-2.78-19.3l-.21,0c-.73,6.18-1.87,13.13-3,18.87L58,267.52l-8.32,1-7.25-17.61c-2.22-5.33-4.64-11.84-6.51-17.85h-.14c.5,6.39,1.18,13.68,1.54,19.59l1.35,18-9.85,1.2L26,224.41l14.18-1.73,6.53,15.16c2.14,5.27,4.32,10.95,6,16.34l.21,0c.66-5.61,1.51-12,2.41-17.45l3.11-16.26,13.91-1.7,8.33,46.76-10.41,1.28Z"/><path class="cls-3" d="M28.58,272.09v-.21l-2.76-47.64,14.52-1.78,6.59,15.3c2.57,6.34,4.45,11.42,5.91,15.94.55-4.59,1.38-11.13,2.36-17l3.14-16.41,14.24-1.74L81,265.69,70.16,267l0-.19-2.9-17.94c-.8-5-1.83-11.66-2.68-18.5-.7,5.7-1.76,12.25-2.92,18.11L58.12,267.7l-8.62,1.06,0-.15L42.19,251c-2.27-5.46-4.49-11.5-6.16-16.76.15,1.89.31,3.84.47,5.8.36,4.32.74,8.79,1,12.63l1.36,18.18Zm-2.34-47.5,2.72,47,9.44-1.16-1.33-17.79c-.24-3.84-.61-8.31-1-12.63-.2-2.36-.4-4.72-.57-7l0-.2.5-.06.05.17c1.71,5.49,4.08,12,6.5,17.83l7.2,17.47,8-1,3.46-18.93c1.22-6.12,2.31-13,3-18.86l0-.16.57-.07,0,.2c.87,7.12,2,14,2.78,19.3h0l2.87,17.74,10-1.22L72.24,219l-13.56,1.66-3.09,16.12c-1,6.07-1.86,12.83-2.41,17.43l0,.16-.53.07-.05-.16c-1.48-4.62-3.39-9.81-6-16.34l-6.46-15Z"/><path class="cls-3" d="M95.74,217l1.89,27.24c.57,8.14,3.94,12.07,9.42,11.69s8.43-4.54,7.85-12.89L113,215.78l10.67-.74,1.84,26.54c1,14.6-5.87,22.06-18.23,22.92-11.93.83-19.41-5.28-20.46-20.38L85,217.73Z"/><path class="cls-3" d="M105.24,264.78c-5.19,0-9.35-1.46-12.4-4.35-3.61-3.42-5.7-8.9-6.21-16.29l-1.85-26.6,11.15-.78V217l1.89,27.24c.55,7.9,3.72,11.88,9.21,11.5s8.22-4.66,7.66-12.68l-1.91-27.44,11.08-.77V215l1.85,26.53c1,14.23-5.38,22.24-18.42,23.14C106.6,264.75,105.91,264.78,105.24,264.78Zm-20-46.86L87,244.11c.51,7.29,2.56,12.68,6.09,16,3.36,3.18,8.12,4.58,14.16,4.16,12.77-.89,19-8.74,18-22.71l-1.83-26.33-10.27.71,1.88,27c.58,8.28-2.13,12.69-8,13.1-5.74.4-9.06-3.71-9.63-11.88l-1.88-27Z"/><path class="cls-3" d="M135.82,250.93a27.31,27.31,0,0,0,12,2.53c4.92-.18,7.45-2.31,7.34-5.41s-2.42-4.56-8.19-6.39c-8-2.46-13.27-6.63-13.52-13.53-.29-8.08,6.24-14.52,17.42-14.92a29,29,0,0,1,12.19,2L161,223.9A22.65,22.65,0,0,0,151,222c-4.64.17-6.82,2.36-6.73,4.82.11,3,2.83,4.26,9,6.36,8.48,2.8,12.58,7,12.82,13.69.29,8-5.59,14.92-18.6,15.39-5.41.2-10.81-1-13.53-2.4Z"/><path class="cls-3" d="M146.32,262.5a30.58,30.58,0,0,1-12.45-2.44l-.14-.07,1.94-9.35.23.11a27.12,27.12,0,0,0,11.9,2.51,9.63,9.63,0,0,0,5.44-1.57,4.21,4.21,0,0,0,1.71-3.63c-.1-2.76-2.13-4.33-8-6.21-8.83-2.72-13.43-7.33-13.66-13.71a13.16,13.16,0,0,1,4.48-10.5c3.17-2.84,7.72-4.44,13.14-4.63a29.59,29.59,0,0,1,12.26,2l.16.06-2.17,9.15-.22-.1a22.55,22.55,0,0,0-9.91-1.88,8.63,8.63,0,0,0-5,1.51,3.65,3.65,0,0,0-1.51,3.1c.1,2.9,2.79,4.11,8.89,6.18,8.72,2.87,12.71,7.15,12.95,13.88a13.32,13.32,0,0,1-4.37,10.65c-3.3,3-8.29,4.72-14.42,5Zm-12.13-2.74a30.9,30.9,0,0,0,13.3,2.31c6-.22,10.93-1.89,14.15-4.84a12.93,12.93,0,0,0,4.25-10.34c-.24-6.53-4.15-10.69-12.68-13.5-6.29-2.13-9.06-3.4-9.17-6.55a4.1,4.1,0,0,1,1.67-3.44,9,9,0,0,1,5.25-1.59,22.71,22.71,0,0,1,9.86,1.81l2-8.33a29.27,29.27,0,0,0-11.94-1.88c-5.32.2-9.78,1.76-12.88,4.53a12.83,12.83,0,0,0-4.34,10.19c.22,6.27,4.6,10.63,13.37,13.34,6,1.92,8.23,3.64,8.33,6.58a4.56,4.56,0,0,1-1.86,4,9.84,9.84,0,0,1-5.67,1.65A27.69,27.69,0,0,1,136,251.23Z"/><path class="cls-3" d="M182.29,222.24l-12.73.12-.09-9,36.45-.37.09,9-12.95.13.39,38.42-10.77.11Z"/><path class="cls-3" d="M182.48,260.86l-.39-38.42-12.73.13-.1-9.42,36.86-.37.09,9.42-12.94.13.38,38.42Zm0-38.83.38,38.42,10.36-.1-.38-38.42,12.94-.13-.08-8.6-36.05.36.09,8.6Z"/><path class="cls-3" d="M223.73,238.6l0,7.1-18.44-.12,0-7.11Z"/><path class="cls-3" d="M223.88,245.91,205,245.78l.05-7.51,18.84.12Zm-18.43-.53,18,.12,0-6.7-18-.12Z"/><path class="cls-3" d="M231.4,213.88a88.17,88.17,0,0,1,14.52-.58c6.61.19,11.29,1.59,14.38,4.21a13.84,13.84,0,0,1,4.76,11.11,15.17,15.17,0,0,1-4.68,11.14c-3.75,3.34-9.21,4.74-15.54,4.56a28.5,28.5,0,0,1-3.65-.31L240.71,261l-10.62-.3Zm10,21.83a17.28,17.28,0,0,0,3.58.38c5.7.16,9.29-2.63,9.43-7.48.12-4.36-2.83-7.05-8.18-7.2a18.23,18.23,0,0,0-4.44.3Z"/><path class="cls-3" d="M240.91,261.17l-11-.31v-.2l1.31-47,.17,0a89.29,89.29,0,0,1,14.55-.58c6.61.18,11.35,1.58,14.51,4.25a14,14,0,0,1,4.83,11.28,15.45,15.45,0,0,1-4.74,11.28c-3.6,3.2-9,4.8-15.69,4.61a26.42,26.42,0,0,1-3.45-.28Zm-10.61-.71,10.22.29.47-17,.23,0a27.5,27.5,0,0,0,3.62.31,28.67,28.67,0,0,0,8.68-1,16.82,16.82,0,0,0,6.73-3.56,15.06,15.06,0,0,0,4.61-11,13.63,13.63,0,0,0-4.69-11c-3.09-2.61-7.75-4-14.26-4.15a89.16,89.16,0,0,0-14.31.55Zm15.15-24.16H245a16.25,16.25,0,0,1-3.62-.39l-.16,0,.4-14.31.15,0a17.39,17.39,0,0,1,4.5-.3,9.56,9.56,0,0,1,6.27,2.07,6.57,6.57,0,0,1,2.1,5.33,7.32,7.32,0,0,1-2.7,5.78A10.38,10.38,0,0,1,245.45,236.3Zm-3.82-.75a17,17,0,0,0,3.37.33,10.2,10.2,0,0,0,6.67-1.81,7,7,0,0,0,2.56-5.47,6.16,6.16,0,0,0-2-5,9.31,9.31,0,0,0-6-2,18.94,18.94,0,0,0-4.24.26Z"/><path class="cls-3" d="M273.3,214.59l10.75.6-2.17,38.37,18.83,1.06-.5,9-29.58-1.67Z"/><path class="cls-3" d="M300.4,263.83l-30-1.69,2.69-47.77,11.16.63-2.16,38.37,18.83,1.06Zm-29.56-2.08L300,263.4l.48-8.59-18.83-1.06,2.16-38.37-10.34-.58Z"/><path class="cls-3" d="M318.65,252.91l-4.49,11.81-11.07-1,18.79-45.9,14,1.29,10.29,48.59-11.49-1.06-2.53-12.46ZM331.37,246l-2-10.3c-.59-2.88-1.1-6.46-1.55-9.33h-.14c-1,2.74-2,6.25-3,8.91l-3.73,9.76Z"/><path class="cls-3" d="M346.45,267.9l-11.92-1.09L332,254.35l-13.22-1.22-4.48,11.81-11.5-1.06,18.95-46.3,14.32,1.33,0,.14Zm-11.58-1.47,11.06,1-10.2-48.17L322,218l-18.63,45.51,10.65,1,4.48-11.82L332.34,254Zm-3.25-20.18-11-1,3.82-10c.61-1.59,1.23-3.5,1.83-5.34.41-1.27.8-2.47,1.18-3.57l0-.15.46.05.24,1.59c.39,2.56.84,5.47,1.33,7.88Zm-10.41-1.36,9.9.91-2-10c-.49-2.42-.94-5.33-1.33-7.9l-.14-.91c-.33.95-.66,2-1,3.06-.6,1.84-1.21,3.75-1.83,5.35Z"/><path class="cls-3" d="M356.23,269.08l2.59-19.25-11.1-29.76,12.13,1.64,3.29,11.95c1,3.61,1.64,6.26,2.41,9.48l.14,0c1.44-2.78,2.92-5.35,4.77-8.51L376.73,224l11.93,1.61-19.19,25.32-2.64,19.6Z"/><path class="cls-3" d="M367,270.74l-11-1.48,2.62-19.4-11.21-30,12.6,1.71,3.32,12.07c.95,3.41,1.55,5.88,2.34,9.16,1.42-2.72,2.87-5.24,4.62-8.22l6.33-10.77L389,225.44,369.67,251Zm-10.55-1.83,10.2,1.38,2.63-19.45,19-25.09-11.44-1.54-6.2,10.54c-1.81,3.09-3.3,5.67-4.77,8.51l-.07.12-.42,0,0-.14c-.82-3.44-1.43-6-2.41-9.48l-3.25-11.82L348,220.32l11,29.49v.05Z"/><path class="cls-5" d="M273.65,74A69.87,69.87,0,1,1,203.78,4.13,69.88,69.88,0,0,1,273.65,74Z"/><path class="cls-6" d="M260.06,74a56.28,56.28,0,1,1-56.28-56.27A56.28,56.28,0,0,1,260.06,74Z"/><path class="cls-1" d="M170.39,91.42c-4.46-4.46-8.33-8-11.7-11.12l9.44-9.43,5.33,4.46.22-.22a17.52,17.52,0,0,1,5.12-16.53c4.68-4.68,10.68-5.85,15.95-3.66l.14-.14a21.88,21.88,0,0,1,.3-9.07,19.15,19.15,0,0,1,5-8.56c6.88-6.87,16.9-7.24,27.57,3.44l21.07,21.06L238.05,72.47,218.66,53.09c-5.19-5.19-9.87-6.5-13.45-2.92-2.64,2.63-2.64,6.14-1.32,9.07a15.92,15.92,0,0,0,2.41,3.14L227.22,83.3,216.4,94.12l-20-20c-4.47-4.45-9.15-5.92-12.73-2.33-2.85,2.85-2.34,6.72-1.24,9.14a10.63,10.63,0,0,0,2.41,3.29L205.57,105l-10.82,10.82Z"/></g></g></svg>